<svg width="331" height="155" viewBox="0 0 331 155" fill="none" xmlns="http://www.w3.org/2000/svg">
<path d="M44.9991 132.6L37.7991 122.92C35.6657 123.347 33.5857 123.56 31.5591 123.56C26.2791 123.56 21.4257 122.333 16.9991 119.88C12.6257 117.427 9.1324 114.013 6.51906 109.64C3.95906 105.213 2.67906 100.253 2.67906 94.76C2.67906 89.2667 3.95906 84.3333 6.51906 79.96C9.1324 75.5867 12.6257 72.1733 16.9991 69.72C21.4257 67.2667 26.2791 66.04 31.5591 66.04C36.8391 66.04 41.6657 67.2667 46.0391 69.72C50.4657 72.1733 53.9324 75.5867 56.4391 79.96C58.9991 84.3333 60.2791 89.2667 60.2791 94.76C60.2791 99.56 59.2924 103.96 57.3191 107.96C55.3991 111.907 52.7057 115.187 49.2391 117.8L61.5591 132.6H44.9991ZM16.6791 94.76C16.6791 99.72 18.0124 103.693 20.6791 106.68C23.3991 109.613 27.0257 111.08 31.5591 111.08C36.0391 111.08 39.6124 109.587 42.2791 106.6C44.9991 103.613 46.3591 99.6667 46.3591 94.76C46.3591 89.8 44.9991 85.8533 42.2791 82.92C39.6124 79.9333 36.0391 78.44 31.5591 78.44C27.0257 78.44 23.3991 79.9067 20.6791 82.84C18.0124 85.7733 16.6791 89.7467 16.6791 94.76ZM112.126 78.36V123H98.4459V116.92C97.0593 118.893 95.1659 120.493 92.7659 121.72C90.4193 122.893 87.8059 123.48 84.9259 123.48C81.5126 123.48 78.4993 122.733 75.8859 121.24C73.2726 119.693 71.2459 117.48 69.8059 114.6C68.3659 111.72 67.6459 108.333 67.6459 104.44V78.36H81.2459V102.6C81.2459 105.587 82.0193 107.907 83.5659 109.56C85.1126 111.213 87.1926 112.04 89.8059 112.04C92.4726 112.04 94.5793 111.213 96.1259 109.56C97.6726 107.907 98.4459 105.587 98.4459 102.6V78.36H112.126ZM128.832 73.72C126.432 73.72 124.459 73.0267 122.912 71.64C121.419 70.2 120.672 68.44 120.672 66.36C120.672 64.2267 121.419 62.4667 122.912 61.08C124.459 59.64 126.432 58.92 128.832 58.92C131.179 58.92 133.099 59.64 134.592 61.08C136.139 62.4667 136.912 64.2267 136.912 66.36C136.912 68.44 136.139 70.2 134.592 71.64C133.099 73.0267 131.179 73.72 128.832 73.72ZM135.632 78.36V123H121.952V78.36H135.632ZM158.346 111.72H177.706V123H143.066V112.12L161.626 89.64H143.226V78.36H177.306V89.24L158.346 111.72ZM198.033 111.72H217.393V123H182.753V112.12L201.313 89.64H182.913V78.36H216.993V89.24L198.033 111.72Z" fill="white"/>
<path d="M238.548 31.84V65.44C238.548 68.8 239.375 71.3867 241.028 73.2C242.682 75.0133 245.108 75.92 248.308 75.92C251.508 75.92 253.962 75.0133 255.668 73.2C257.375 71.3867 258.228 68.8 258.228 65.44V31.84H271.908V65.36C271.908 70.3733 270.842 74.6133 268.708 78.08C266.575 81.5467 263.695 84.16 260.068 85.92C256.495 87.68 252.495 88.56 248.068 88.56C243.642 88.56 239.668 87.7067 236.148 86C232.682 84.24 229.935 81.6267 227.908 78.16C225.882 74.64 224.868 70.3733 224.868 65.36V31.84H238.548ZM295.195 49.68C296.528 47.6 298.368 45.92 300.715 44.64C303.061 43.36 305.808 42.72 308.955 42.72C312.635 42.72 315.968 43.6533 318.955 45.52C321.941 47.3867 324.288 50.0533 325.995 53.52C327.755 56.9867 328.635 61.0133 328.635 65.6C328.635 70.1867 327.755 74.24 325.995 77.76C324.288 81.2267 321.941 83.92 318.955 85.84C315.968 87.7067 312.635 88.64 308.955 88.64C305.861 88.64 303.115 88 300.715 86.72C298.368 85.44 296.528 83.7867 295.195 81.76V109.28H281.515V43.36H295.195V49.68ZM314.715 65.6C314.715 62.1867 313.755 59.52 311.835 57.6C309.968 55.6267 307.648 54.64 304.875 54.64C302.155 54.64 299.835 55.6267 297.915 57.6C296.048 59.5733 295.115 62.2667 295.115 65.68C295.115 69.0933 296.048 71.7867 297.915 73.76C299.835 75.7333 302.155 76.72 304.875 76.72C307.595 76.72 309.915 75.7333 311.835 73.76C313.755 71.7333 314.715 69.0133 314.715 65.6Z" fill="white"/>
</svg>
