<svg width="64" height="64" viewBox="0 0 64 64" fill="none" xmlns="http://www.w3.org/2000/svg">
<path d="M53.275 21.278H42.716V10.719C42.716 4.7971 37.9152 0 31.997 0C26.0751 0 21.278 4.8008 21.278 10.719V21.278H10.719C4.7971 21.278 0 26.0788 0 31.997C0 37.9189 4.8008 42.716 10.719 42.716H21.278V53.275C21.278 59.1969 26.0788 63.994 31.997 63.994C37.9189 63.994 42.716 59.1932 42.716 53.275V42.716H53.275C59.1969 42.716 63.994 37.9152 63.994 31.997C63.994 26.0751 59.1932 21.278 53.275 21.278Z" fill="white"/>
</svg>
