<svg width="33" height="24" viewBox="0 0 33 24" fill="none" xmlns="http://www.w3.org/2000/svg">
<path d="M30.8673 6.35858L17.6739 1.27006C16.6509 0.876615 15.4968 0.876615 14.4739 1.27006L1.28043 6.35858C0.572229 6.62088 0.100098 7.30284 0.100098 8.0635C0.100098 8.82416 0.572229 9.50612 1.28043 9.76842L4.79518 11.1324V17.2438C4.79518 22.5946 10.828 23.2766 16.0739 23.2766C21.3198 23.2766 27.3526 22.5946 27.3526 17.2438V12.1291C27.3526 11.5258 27.064 10.9487 26.5657 10.6078C26.0673 10.2668 25.4378 10.1881 24.8608 10.3979L17.0968 13.3881C16.4411 13.6504 15.6804 13.6504 15.0247 13.3881L1.85747 8.29957C1.72633 8.24711 1.7001 8.14219 1.7001 8.0635C1.7001 7.98481 1.72633 7.87989 1.85747 7.82743L15.0509 2.76514C15.7067 2.50284 16.4673 2.50284 17.123 2.76514L30.3165 7.82743C30.4739 7.87989 30.5263 8.01104 30.5263 8.08973C30.5263 8.11596 30.5263 8.11596 30.5263 8.14219V11.9979C30.5263 12.4438 30.8673 12.7848 31.3132 12.7848C31.7591 12.7848 32.1001 12.4438 32.1001 11.9979V8.14219C32.1001 7.3553 31.628 6.64711 30.8673 6.35858Z" fill="#16161D"/>
<path d="M32.0738 17.2439V15.9324C32.0738 15.4865 31.7328 15.1455 31.2869 15.1455C30.841 15.1455 30.5 15.4865 30.5 15.9324V17.2439C30.5 17.6898 30.841 18.0308 31.2869 18.0308C31.7328 18.0308 32.0738 17.6898 32.0738 17.2439Z" fill="#16161D"/>
</svg>
